<svg width="23" height="24" viewBox="0 0 23 24" fill="none" xmlns="http://www.w3.org/2000/svg">
<path d="M16.7709 6.5H16.7804M6.70835 2H16.2917C18.9381 2 21.0834 4.23858 21.0834 7V17C21.0834 19.7614 18.9381 22 16.2917 22H6.70835C4.06199 22 1.91669 19.7614 1.91669 17V7C1.91669 4.23858 4.06199 2 6.70835 2ZM15.3334 11.37C15.4516 12.2022 15.3154 13.0522 14.944 13.799C14.5727 14.5458 13.9851 15.1514 13.2649 15.5297C12.5447 15.9079 11.7285 16.0396 10.9325 15.9059C10.1364 15.7723 9.40104 15.3801 8.83091 14.7852C8.26077 14.1902 7.88493 13.4229 7.75683 12.5922C7.62874 11.7616 7.75492 10.9099 8.11742 10.1584C8.47992 9.40685 9.06028 8.79374 9.77596 8.40624C10.4916 8.01874 11.3062 7.87659 12.1038 8C12.9173 8.12589 13.6705 8.52146 14.2521 9.12831C14.8336 9.73515 15.2127 10.5211 15.3334 11.37Z" stroke="#1E1E1E" stroke-width="2" stroke-linecap="round" stroke-linejoin="round"/>
</svg>
