<svg width="25" height="26" viewBox="0 0 25 26" fill="none" xmlns="http://www.w3.org/2000/svg">
<path d="M12.038 12.5652C12.5897 12.5652 13.062 12.3601 13.4549 11.95C13.8478 11.5399 14.0443 11.0469 14.0443 10.471C14.0443 9.89509 13.8478 9.40209 13.4549 8.99197C13.062 8.58186 12.5897 8.37681 12.038 8.37681C11.4862 8.37681 11.0139 8.58186 10.621 8.99197C10.2281 9.40209 10.0317 9.89509 10.0317 10.471C10.0317 11.0469 10.2281 11.5399 10.621 11.95C11.0139 12.3601 11.4862 12.5652 12.038 12.5652ZM12.038 23.0361C9.34617 20.6453 7.33566 18.4246 6.00648 16.374C4.67729 14.3234 4.0127 12.4256 4.0127 10.6804C4.0127 8.06268 4.8194 5.97721 6.43282 4.42402C8.04624 2.87083 9.91462 2.09424 12.038 2.09424C14.1613 2.09424 16.0297 2.87083 17.6431 4.42402C19.2566 5.97721 20.0633 8.06268 20.0633 10.6804C20.0633 12.4256 19.3987 14.3234 18.0695 16.374C16.7403 18.4246 14.7298 20.6453 12.038 23.0361Z" fill="#0A4216"/>
</svg>
