<svg width="25" height="25" viewBox="0 0 25 25" fill="none" xmlns="http://www.w3.org/2000/svg">
<path d="M19.7916 8.33333C18.9235 8.33333 18.1857 8.02951 17.578 7.42187C16.9704 6.81424 16.6666 6.07639 16.6666 5.20833C16.6666 4.34028 16.9704 3.60243 17.578 2.99479C18.1857 2.38715 18.9235 2.08333 19.7916 2.08333C20.6596 2.08333 21.3975 2.38715 22.0051 2.99479C22.6128 3.60243 22.9166 4.34028 22.9166 5.20833C22.9166 6.07639 22.6128 6.81424 22.0051 7.42187C21.3975 8.02951 20.6596 8.33333 19.7916 8.33333ZM4.16659 20.8333C3.59367 20.8333 3.10322 20.6293 2.69523 20.2214C2.28725 19.8134 2.08325 19.3229 2.08325 18.75V6.25C2.08325 5.67708 2.28725 5.18663 2.69523 4.77865C3.10322 4.37066 3.59367 4.16667 4.16659 4.16667H14.6874C14.618 4.51389 14.5833 4.86111 14.5833 5.20833C14.5833 5.55556 14.618 5.90278 14.6874 6.25C14.8089 6.80555 15.0086 7.32205 15.2864 7.79948C15.5642 8.27691 15.9027 8.69792 16.302 9.0625L12.4999 11.4583L4.16659 6.25V8.33333L12.4999 13.5417L17.9947 10.1042C18.2899 10.2083 18.585 10.2865 18.8801 10.3385C19.1753 10.3906 19.4791 10.4167 19.7916 10.4167C20.3471 10.4167 20.894 10.3299 21.4322 10.1562C21.9704 9.98264 22.4652 9.72222 22.9166 9.375V18.75C22.9166 19.3229 22.7126 19.8134 22.3046 20.2214C21.8966 20.6293 21.4062 20.8333 20.8333 20.8333H4.16659Z" fill="#4B7E5D"/>
</svg>
