<svg width="21" height="21" viewBox="0 0 21 21" fill="none" xmlns="http://www.w3.org/2000/svg">
<g clip-path="url(#clip0_292_171)">
<path d="M18.4494 14.7174V17.3269C18.4503 17.5692 18.4025 17.809 18.3089 18.0309C18.2153 18.2529 18.0781 18.4521 17.906 18.6159C17.7339 18.7797 17.5307 18.9044 17.3095 18.982C17.0882 19.0596 16.8538 19.0884 16.6212 19.0666C14.0406 18.7758 11.5619 17.8611 9.38399 16.3962C7.35776 15.0607 5.63988 13.2789 4.35233 11.1772C2.93507 8.90803 2.05307 6.32445 1.7778 3.63581C1.75685 3.39528 1.78441 3.15285 1.85873 2.92397C1.93305 2.69508 2.05251 2.48476 2.20949 2.30639C2.36647 2.12801 2.55755 1.9855 2.77054 1.88791C2.98354 1.79033 3.21379 1.73981 3.44664 1.73959H5.96246C6.36944 1.73543 6.764 1.88492 7.07258 2.16018C7.38116 2.43544 7.58272 2.81769 7.63968 3.23569C7.74587 4.07079 7.9428 4.89074 8.22671 5.67991C8.33954 5.99125 8.36396 6.3296 8.29707 6.65489C8.23019 6.98018 8.0748 7.27876 7.84933 7.51526L6.7843 8.61994C7.97811 10.7976 9.71646 12.6007 11.816 13.8389L12.881 12.7342C13.109 12.5004 13.3969 12.3392 13.7105 12.2698C14.0241 12.2005 14.3503 12.2258 14.6505 12.3428C15.4113 12.6373 16.2018 12.8416 17.0069 12.9517C17.4143 13.0113 17.7863 13.2241 18.0523 13.5497C18.3182 13.8753 18.4596 14.2909 18.4494 14.7174Z" stroke="#0B4B20" stroke-width="2" stroke-linecap="round" stroke-linejoin="round"/>
</g>
<defs>
<clipPath id="clip0_292_171">
<rect width="20.1266" height="20.8759" fill="white"/>
</clipPath>
</defs>
</svg>
